<?xml version="1.0" encoding="UTF-8" standalone="no"?>
<!-- Generator: Adobe Illustrator 16.0.0, SVG Export Plug-In . SVG Version: 6.00 Build 0)  -->

<svg
   version="1.1"
   id="Capa_1"
   x="0px"
   y="0px"
   width="38.148px"
   height="38.148px"
   viewBox="0 0 38.148 38.148"
   style="enable-background:new 0 0 38.148 38.148;"
   xml:space="preserve"
   sodipodi:docname="cinema.svg"
   inkscape:version="1.2.1 (9c6d41e410, 2022-07-14)"
   xmlns:inkscape="http://www.inkscape.org/namespaces/inkscape"
   xmlns:sodipodi="http://sodipodi.sourceforge.net/DTD/sodipodi-0.dtd"
   xmlns="http://www.w3.org/2000/svg"
   xmlns:svg="http://www.w3.org/2000/svg"><defs
   id="defs4848" /><sodipodi:namedview
   id="namedview4846"
   pagecolor="#ffffff"
   bordercolor="#000000"
   borderopacity="0.25"
   inkscape:showpageshadow="2"
   inkscape:pageopacity="0.0"
   inkscape:pagecheckerboard="0"
   inkscape:deskcolor="#d1d1d1"
   showgrid="false"
   inkscape:zoom="22.832128"
   inkscape:cx="18.876909"
   inkscape:cy="19.095899"
   inkscape:window-width="1916"
   inkscape:window-height="1052"
   inkscape:window-x="1"
   inkscape:window-y="25"
   inkscape:window-maximized="1"
   inkscape:current-layer="Capa_1" />
<g
   id="g4813"
   style="fill:#bb9af7;fill-opacity:1">
	<path
   d="M38.148,19.12v12.363c0,1.006-0.815,1.823-1.823,1.823h-3.951c-0.267,0-0.528-0.059-0.771-0.172l-3.182-1.479v2.006   c0,1.008-0.816,1.824-1.824,1.824H1.823C0.815,35.485,0,34.668,0,33.661V16.943c0-1.008,0.815-1.824,1.823-1.824h24.774   c1.008,0,1.824,0.816,1.824,1.824v2.006l3.182-1.482c0.24-0.113,0.504-0.17,0.771-0.17h3.951   C37.333,17.296,38.148,18.113,38.148,19.12z M20.864,13.527c2.993,0,5.429-2.436,5.429-5.43s-2.436-5.433-5.429-5.433   c-2.995,0-5.433,2.438-5.433,5.433S17.869,13.527,20.864,13.527z M6.418,13.527c2.994,0,5.43-2.436,5.43-5.43   s-2.436-5.433-5.43-5.433c-2.994,0-5.433,2.438-5.433,5.433S3.424,13.527,6.418,13.527z"
   id="path4811"
   style="fill:#bb9af7;fill-opacity:1" />
</g>
<g
   id="g4815">
</g>
<g
   id="g4817">
</g>
<g
   id="g4819">
</g>
<g
   id="g4821">
</g>
<g
   id="g4823">
</g>
<g
   id="g4825">
</g>
<g
   id="g4827">
</g>
<g
   id="g4829">
</g>
<g
   id="g4831">
</g>
<g
   id="g4833">
</g>
<g
   id="g4835">
</g>
<g
   id="g4837">
</g>
<g
   id="g4839">
</g>
<g
   id="g4841">
</g>
<g
   id="g4843">
</g>
<path
   style="fill:#ff9e64;stroke:#bb9af7;stroke-width:0.0437979"
   d="M 1.4234328,35.414525 C 0.69147125,35.232861 0.13725532,34.614023 0.04157981,33.871548 -0.01353997,33.443799 -0.00979024,17.096205 0.0455165,16.708911 c 0.02407974,-0.168622 0.09633632,-0.414985 0.16057018,-0.547474 0.152946,-0.315466 0.538193,-0.696284 0.86696262,-0.856996 l 0.2627876,-0.128457 12.7785571,-0.01124 12.778556,-0.01124 0.269596,0.09082 c 0.484757,0.163303 0.842841,0.482131 1.077398,0.959286 l 0.119217,0.242521 0.01342,1.25919 c 0.0074,0.692555 0.02545,1.259191 0.04016,1.259191 0.01471,0 0.787309,-0.353561 1.716891,-0.78569 1.301443,-0.604994 1.755556,-0.796301 1.974547,-0.83183 0.363358,-0.05895 4.131825,-0.06173 4.488999,-0.0033 0.378709,0.06194 0.756748,0.263747 1.02459,0.546951 0.286577,0.303013 0.429808,0.612623 0.488478,1.055899 0.03065,0.2316 0.04155,2.422932 0.03286,6.609572 l -0.013,6.263104 -0.101515,0.251365 c -0.2136,0.528901 -0.567846,0.89539 -1.05913,1.095733 -0.236953,0.09663 -0.277378,0.09846 -2.474583,0.112366 -1.612619,0.0102 -2.300674,-3.95e-4 -2.474583,-0.03807 -0.132489,-0.02871 -0.979979,-0.396094 -1.883311,-0.816411 -0.903333,-0.420317 -1.662132,-0.767805 -1.686221,-0.772195 -0.02795,-0.0051 -0.05172,0.443799 -0.0657,1.240258 -0.02181,1.242949 -0.0224,1.24931 -0.139973,1.500195 -0.233952,0.499221 -0.766426,0.924408 -1.296565,1.035325 -0.354023,0.07407 -25.2212839,0.06117 -25.5210892,-0.01324 z"
   id="path2715" /><path
   style="fill:#ff9e64;stroke:#bb9af7;stroke-width:0.0437979"
   d="M 5.4570945,13.419396 C 5.0144054,13.339453 4.4270106,13.142516 4.0201467,12.937629 2.9531311,12.400305 1.9947467,11.418475 1.512548,10.368686 0.68907753,8.5759164 0.90026045,6.4749266 2.0619263,4.9031008 3.7192391,2.6606255 6.7555933,2.0296777 9.1422797,3.4318189 c 1.5896613,0.9339018 2.5934383,2.6002351 2.6685173,4.42991 0.06142,1.4968999 -0.457713,2.8774601 -1.484,3.9464651 -0.8308109,0.865392 -1.8485189,1.415478 -2.9856228,1.613772 -0.4810975,0.0839 -1.4123033,0.08263 -1.8840797,-0.0026 z"
   id="path2717" /><path
   style="fill:#ff9e64;stroke:#bb9af7;stroke-width:0.0437979"
   d="m 19.910412,13.419396 c -2.239635,-0.404447 -4.017403,-2.219217 -4.389625,-4.4809922 -0.08327,-0.5059984 -0.05808,-1.5346463 0.04836,-1.9745325 0.250856,-1.03673 0.729354,-1.9203248 1.424451,-2.6303952 1.382435,-1.412214 3.371891,-1.9665524 5.251991,-1.4634047 1.971977,0.5277358 3.481116,2.1229234 3.914406,4.1375978 0.120672,0.5610949 0.128337,1.5699321 0.01597,2.1023008 -0.236364,1.11986 -0.700434,1.985509 -1.494197,2.787191 -0.806798,0.814847 -1.788215,1.333145 -2.887279,1.524805 -0.481098,0.0839 -1.412303,0.08263 -1.88408,-0.0026 z"
   id="path2719" /></svg>
