<?xml version="1.0" encoding="UTF-8" standalone="no"?>
<!-- Generator: Adobe Illustrator 18.0.0, SVG Export Plug-In . SVG Version: 6.00 Build 0)  -->

<svg
   version="1.1"
   id="Capa_1"
   x="0px"
   y="0px"
   viewBox="0 0 335.841 335.841"
   style="enable-background:new 0 0 335.841 335.841;"
   xml:space="preserve"
   sodipodi:docname="helmet.svg"
   inkscape:version="1.2.1 (9c6d41e410, 2022-07-14)"
   xmlns:inkscape="http://www.inkscape.org/namespaces/inkscape"
   xmlns:sodipodi="http://sodipodi.sourceforge.net/DTD/sodipodi-0.dtd"
   xmlns="http://www.w3.org/2000/svg"
   xmlns:svg="http://www.w3.org/2000/svg"><defs
   id="defs8226" /><sodipodi:namedview
   id="namedview8224"
   pagecolor="#ffffff"
   bordercolor="#000000"
   borderopacity="0.25"
   inkscape:showpageshadow="2"
   inkscape:pageopacity="0.0"
   inkscape:pagecheckerboard="0"
   inkscape:deskcolor="#d1d1d1"
   showgrid="false"
   inkscape:zoom="2.5934892"
   inkscape:cx="152.30447"
   inkscape:cy="174.28258"
   inkscape:window-width="1916"
   inkscape:window-height="1052"
   inkscape:window-x="1"
   inkscape:window-y="25"
   inkscape:window-maximized="1"
   inkscape:current-layer="g8191" />
<g
   id="g8191">
	<path
   d="M331.947,226.808l-1.932-5.573c-1.31-3.778-2.823-7.482-4.532-11.097L306.735,170.5l-25.861-54.679   c-1.656-3.501-3.447-6.939-5.387-10.291c-0.69-1.193-1.312-2.233-1.653-2.718c-25.83-36.785-75.364-58.221-137.009-59.039   c-0.608-0.009-1.205-0.013-1.811-0.013c-73.817,0-134.382,59.207-135.009,131.982c-0.364,42.22,19.624,82.54,53.467,107.858   c7.311,5.469,16.443,8.48,25.715,8.48h223.812c13.745,0,26.062-9.207,29.952-22.39C337.12,255.559,336.773,240.731,331.947,226.808   z M314.197,215.295h-19.735l-43.618-87.761h21.892c0.018,0.042,0.041,0.093,0.058,0.133l0.084,0.201L314.197,215.295z    M173.498,127.877l39.437,79.33c-7.852-3.842-15.105-8.985-21.465-15.35c-15.112-15.111-23.436-35.203-23.436-56.573   C168.034,131.804,170.338,128.854,173.498,127.877z M230.509,213.356l-42.664-85.821h22.982l43.628,87.761h-6.411   C242.069,215.295,236.202,214.622,230.509,213.356z M268.972,215.295l-43.628-87.761h10.983l43.618,87.761H268.972z    M320.481,266.012c-2.271,7.695-9.46,13.069-17.483,13.069H79.187c-6.483,0-12.85-2.092-17.928-5.891   c-30.543-22.85-48.583-59.237-48.254-97.337C13.57,110.186,68.303,56.76,135.014,56.76c0.548,0,1.088,0.004,1.638,0.011   c59.62,0.791,106.684,21.727,129.163,57.449c0.053,0.096,0.116,0.209,0.174,0.314h-90.214c-11.436,0-20.74,9.309-20.74,20.75   c0,24.843,9.675,48.199,27.242,65.765c17.559,17.57,40.916,27.246,65.768,27.246h70.66l0.96,2.771   C323.597,242.411,323.88,254.495,320.481,266.012z"
   id="path8187" />
	<path
   d="M128.605,135.536c-11.854,0-21.499,9.645-21.499,21.499s9.645,21.499,21.499,21.499c11.855,0,21.5-9.645,21.5-21.499   S140.46,135.536,128.605,135.536z M128.605,165.534c-4.687,0-8.499-3.813-8.499-8.499s3.813-8.499,8.499-8.499s8.5,3.813,8.5,8.499   S133.292,165.534,128.605,165.534z"
   id="path8189" />
<path
   style="fill:#bb9af7;stroke:#bb9af7;stroke-width:0.385581"
   d="m 237.71065,227.48128 c -31.0822,-3.52265 -58.39743,-22.54712 -72.50711,-50.49963 -6.30689,-12.49449 -10.00532,-27.61299 -10.00689,-40.90629 -0.001,-9.20059 5.2374,-16.8244 13.87478,-20.19263 l 2.51209,-0.97961 47.37301,-0.19279 47.37301,-0.19279 -1.94196,-2.89186 C 254.07704,96.271766 238.49337,83.345134 219.05811,74.02494 196.88782,63.393167 171.45235,57.770702 140.54425,56.669597 112.4623,55.669174 85.892576,63.499848 63.672566,79.325348 c -3.28199,2.337494 -5.907432,4.441708 -12.072229,9.675525 l -1.282024,1.088422 0.0036,-8.221668 0.0036,-8.221666 4.11394,-3.064281 c 19.463849,-14.497761 43.10579,-23.555796 67.982497,-26.046444 11.68702,-1.1701 31.87949,-0.272381 48.0328,2.135449 36.77981,5.482437 67.51238,19.296278 89.14335,40.068644 9.6743,9.290284 14.50374,15.977281 21.03647,29.127741 l 4.30975,8.67558 0.0868,14.26649 0.0868,14.2665 -2.40839,-5.01256 c -1.3246,-2.7569 -4.05308,-8.522 -6.06326,-12.81132 l -3.65489,-7.79878 -11.11144,-0.009 -11.11143,-0.009 0.2734,0.86755 c 0.15037,0.47716 7.12589,14.57496 15.50117,31.32845 8.37527,16.7535 15.98519,32.08756 16.91093,34.07571 l 1.68317,3.61482 v 15.37506 15.37506 l -21.49614,-0.0437 c -14.87147,-0.0302 -22.86266,-0.19853 -25.93032,-0.5462 z m 14.36225,-17.43606 c -1.42982,-2.91596 -9.17392,-18.48861 -17.20912,-34.60589 -8.03519,-16.11728 -16.65556,-33.5118 -19.15637,-38.65449 l -4.54692,-9.35034 h -11.79552 -11.79551 l 0.71623,1.44593 c 3.51574,7.09752 41.90192,84.37671 41.96122,84.47647 0.14695,0.2472 3.42204,0.89637 7.07816,1.40301 2.01466,0.27917 6.74203,0.52547 10.50527,0.54732 l 6.84224,0.0397 z m 28.05166,5.17218 c 0,-0.0713 -9.80563,-19.85156 -21.79029,-43.95623 L 236.54399,127.4345 h -5.58597 c -3.07227,0 -5.58942,0.13014 -5.59364,0.28919 -0.004,0.15905 9.7486,19.93935 21.67296,43.95623 l 21.68063,43.66704 h 5.7033 c 3.13681,0 5.70329,-0.0583 5.70329,-0.12956 z m -67.09109,-8.12159 c 0,-0.66456 -39.37435,-79.27573 -39.70721,-79.27573 -0.83485,0 -2.62535,1.14155 -3.59158,2.28985 -1.66969,1.9843 -1.94949,3.51877 -1.68851,9.2599 1.02019,22.44282 11.31252,43.03455 28.81561,57.65098 5.44542,4.54736 16.17169,11.22984 16.17169,10.075 z"
   id="path8779" /><path
   style="fill:#bb9af7;stroke:#bb9af7;stroke-width:0.385581"
   d="m 123.25531,177.57369 c -3.85922,-1.04657 -6.71606,-2.75253 -9.76735,-5.83259 -4.03879,-4.07688 -6.10367,-9.10721 -6.10367,-14.86937 0,-8.56857 5.91005,-16.89941 14.0888,-19.85964 2.88111,-1.0428 8.64915,-1.3923 11.70617,-0.70931 6.82879,1.52565 12.83247,6.74408 15.30437,13.30263 1.23742,3.28316 1.66366,8.65547 0.93688,11.80842 -1.20075,5.20921 -4.99956,10.71204 -9.29996,13.47159 -4.88705,3.13601 -11.39118,4.17275 -16.86524,2.68827 z m 8.72215,-12.5655 c 7.49311,-3.13005 6.68781,-14.27704 -1.18456,-16.39685 -3.62283,-0.97553 -8.07481,0.94971 -9.7949,4.23576 -1.76046,3.36317 -1.02818,7.9553 1.67782,10.52156 2.29251,2.17411 6.32173,2.88431 9.30164,1.63953 z"
   id="path8781" /><path
   style="fill:#bb9af7;stroke:#bb9af7;stroke-width:0.385581"
   d="m 76.923399,291.82227 c -8.638604,-0.60026 -14.926965,-2.42567 -21.898022,-7.49821 l -4.707064,-3.42514 v -8.30133 -8.30133 l 3.397302,2.99799 c 7.487885,6.60778 11.248756,9.08267 17.029417,10.78498 l 3.904374,0.86908 105.127714,0.31347 105.35999,0.10118 v 6.3573 6.35731 l -103.2393,-0.0674 c -56.78161,-0.037 -104.020099,-0.12159 -104.974411,-0.1879 z"
   id="path8783"
   sodipodi:nodetypes="sscccssccccccs" /><path
   style="fill:#bb9af7;stroke:#bb9af7;stroke-width:0.385581"
   d="m 285.52269,285.71548 v -6.36209 l 9.35034,-0.007 c 13.16035,-0.009 16.07289,-0.76823 20.95943,-5.46052 3.62515,-3.48105 5.28582,-7.45208 6.50826,-15.5627 1.26146,-8.36954 0.47301,-17.96405 -2.16158,-26.3037 l -1.24743,-3.94864 H 302.2272 285.52269 l 0.0219,-14.94126 0.0219,-14.94126 4.31184,8.57917 4.31185,8.57918 h 10.11578 10.11578 l -1.28597,-2.79546 c -0.70729,-1.53751 -7.21796,-15.34548 -14.46815,-30.68439 l -13.18218,-27.88892 0.0276,-13.53787 c 0.0152,-7.44582 0.0776,-13.58793 0.13884,-13.64913 0.13399,-0.134 39.30015,82.63206 41.46167,87.61695 2.0159,4.64906 5.27741,14.12902 6.42517,18.67554 1.20269,4.7641 2.10947,11.82336 2.10947,16.42214 0,7.57376 -1.70547,17.44526 -3.95079,22.86765 -3.45777,8.35045 -10.54515,14.9809 -19.07842,17.8484 -4.2137,1.41597 -8.48564,1.8331 -18.90271,1.84575 l -8.1936,0.01 z"
   id="path9874" /><path
   style="fill:#bb9af7;stroke:#bb9af7;stroke-width:0.385581"
   d=""
   id="path9876" /><path
   style="fill:#bb9af7;stroke:#bb9af7;stroke-width:0.385581"
   d="m 285.52269,285.73678 v -6.38339 l 8.38639,-0.0211 c 8.51655,-0.0214 10.11161,-0.0851 13.20614,-0.52795 4.81364,-0.6888 10.1618,-4.93463 12.54983,-9.96315 2.11086,-4.44486 2.92066,-8.9011 3.11457,-17.13905 0.19136,-8.12958 -0.28699,-12.17677 -2.24616,-19.00409 l -1.27244,-4.43418 -16.9282,-0.10049 -16.9282,-0.10049 -1.96672,-8.65832 c -0.57139,-2.51551 -1.05582,-10.59237 -0.49481,-15.88419 l 0.95839,-9.04013 6.07781,12.86585 4.0298,8.00081 h 10.21609 c 5.61884,0 10.21608,-0.0969 10.21608,-0.21531 0,-0.3061 -2.91723,-6.54754 -16.73379,-35.80203 l -12.18478,-25.79944 -3.35127,-19.72724 c -0.71354,-4.20025 5.29053,1.47094 3.68445,-0.76632 -14.04668,-19.567 -0.84036,-6.18524 -1.26054,-9.27786 l 3.87297,9.27786 c 1.17236,2.80843 8.04334,16.97365 14.98085,31.60644 23.84281,50.28999 24.92479,52.69877 28.11705,62.59602 0.7758,2.40532 1.66955,5.49006 1.9861,6.85499 3.49811,15.08356 1.52129,33.44426 -4.62352,42.94316 -5.18052,8.00827 -13.00074,13.04398 -22.11588,14.24119 -1.63629,0.21492 -7.09597,0.49223 -12.13262,0.61625 l -9.15755,0.2255 z"
   id="path9878"
   sodipodi:nodetypes="ccssssscccsscccssscsscssssssscc" /><path
   id="path10012"
   style="fill:#bb9af7;stroke:#bb9af7;stroke-width:0.0963952"
   d="m 8.8046875,200.64648 c -6.4199838,0 -6.5390625,0.003 -6.5390625,0.1875 0,0.28987 0.8286038,4.253 1.3613281,6.51172 5.1825977,21.97405 16.0860059,42.63483 31.3124999,59.33203 4.2464,4.65656 9.181352,9.34617 13.884766,13.19532 l 1.205078,0.98633 4.147524,-5.13024 -1.854555,-9.86195 -3.126954,-2.92969 c -1.061698,-1.00867 -3.833853,-3.91953 -5.4375,-5.71094 -4.02041,-4.49112 -7.456407,-8.95249 -10.796874,-14.01953 -6.652787,-10.09139 -11.712116,-20.98539 -15.136719,-32.58398 -0.669887,-2.26879 -1.772604,-6.60731 -2.210938,-8.69922 l -0.269531,-1.27735 z"
   sodipodi:nodetypes="sssscccccsssccs" /><path
   style="fill:#bb9af7;stroke:#bb9af7;stroke-width:0.385581"
   d="M 1.8091032,197.32105 C 0.62048337,189.33958 0.41061853,186.33421 0.4022685,177.17444 0.39314346,167.16452 0.74142539,162.67786 2.168206,154.42517 6.6469374,128.51958 19.674574,103.45079 38.558095,84.400925 c 2.756903,-2.78119 6.400643,-6.223285 8.097199,-7.649099 l 3.084648,-2.592391 22.1911,-4.601602 -21.982771,20.929885 -3.825834,4.007129 C 28.740358,112.70061 17.866848,134.88519 14.013932,160.00395 c -1.553708,10.12926 -1.379565,25.56386 0.41016,36.35315 l 0.655591,3.9522 -3.049373,20.35069 -9.7761891,-20.35069 z"
   id="path10916"
   sodipodi:nodetypes="ssssscccssscccs" /><path
   style="fill:#ff9e64;stroke:#bb9af7;stroke-width:0.385581;fill-opacity:1"
   d="M 170.23398,291.89847 C 66.05325,291.61174 72.051975,291.74702 65.415002,289.53459 58.061341,287.08326 47.433111,279.27517 37.679431,269.1585 21.309064,252.17889 9.6485962,230.97454 4.0593128,208.02092 2.6117181,202.07605 2.614324,202.09087 1.5172894,193.56163 0.63655461,186.71408 0.4277458,168.82192 1.1586459,162.83062 3.9653911,139.82331 11.959284,119.12592 25.131773,100.76059 37.595918,83.382838 53.619899,69.438155 72.296426,59.71609 87.520372,51.791265 103.16182,47.025592 120.87962,44.913647 c 4.91903,-0.586343 21.89737,-0.841833 25.95799,-0.390616 0.99211,0.110244 3.36544,0.280194 5.27407,0.377668 12.90381,0.658996 31.1824,3.803879 44.81211,7.710049 20.97499,6.011269 39.27822,15.138851 54.28219,27.069822 5.09731,4.053316 15.35692,14.243696 18.38102,18.256988 3.49711,4.641022 6.7583,10.074822 10.87646,18.122302 2.11619,4.13536 3.9901,7.57667 4.16424,7.64736 0.17414,0.0707 0.31661,0.46006 0.31661,0.86526 0,0.40521 0.76628,2.34275 1.70283,4.30565 0.93655,1.96291 3.0846,6.51862 4.77343,10.1238 1.68883,3.60518 8.66436,18.35365 15.50117,32.77438 16.07155,33.89934 19.30853,40.91721 21.78761,47.23617 6.81218,17.36364 8.28303,30.05505 5.20893,44.9459 -1.80289,8.73318 -4.79423,14.36403 -10.35216,19.48676 -5.33623,4.91841 -11.59342,7.62089 -19.09261,8.24614 -4.69846,0.39174 -44.73553,0.45353 -134.23953,0.20719 z M 281.0885,279.18172 c 28.49867,-0.31437 27.76606,-0.24569 31.90181,-2.99062 7.20218,-4.78015 10.12357,-13.43802 9.60156,-28.45535 -0.22192,-6.38441 -0.673,-9.34226 -2.38741,-15.65479 l -1.00536,-3.70179 -35.3461,-0.27374 c -19.44034,-0.15057 -38.20902,-0.42695 -41.70817,-0.61418 -31.54881,-1.68812 -60.76244,-20.53829 -75.88853,-48.96728 -6.40774,-12.04315 -10.78826,-28.71333 -10.91705,-41.54512 -0.0966,-9.62838 4.97393,-17.22548 13.97397,-20.93679 l 2.82177,-1.16361 45.31921,-0.029 c 24.92556,-0.016 46.15542,-0.14056 47.17745,-0.27685 l 1.85824,-0.24782 -2.40154,-3.47023 C 248.59684,88.469214 222.88662,71.941925 190.0914,63.287089 c -8.27808,-2.184631 -21.17943,-4.548045 -28.72578,-5.26231 -1.27241,-0.120435 -3.18104,-0.303269 -4.24139,-0.406299 -17.33926,-1.684787 -30.1282,-1.49382 -42.99227,0.641967 -38.391186,6.373984 -71.934603,31.246897 -89.057637,66.037483 -4.08465,8.2992 -6.431267,14.65937 -8.708753,23.60383 -2.564891,10.07321 -3.324879,16.02695 -3.392092,26.57361 -0.08912,13.98443 0.59934,20.40905 3.346816,31.23206 5.893792,23.21715 17.988278,43.73373 35.24902,59.79497 8.031058,7.47295 12.648405,10.62589 18.156579,12.39817 l 2.956114,0.95114 38.558093,0.19845 c 21.20695,0.10914 38.63039,0.2654 38.71875,0.34723 0.27389,0.25366 104.05741,0.083 131.12965,-0.21567 z m -28.06456,-63.87948 1.73281,-0.23751 -21.63281,-43.7051 -21.6328,-43.70511 -12.02023,-0.0136 -12.02024,-0.0136 16.88057,34.02752 c 28.02653,56.49533 25.60773,51.86126 27.29977,52.3025 4.50864,1.17574 16.92998,1.95664 21.39293,1.34493 z m 27.2934,0.0329 c 0,-0.10621 -9.7655,-19.87924 -21.70112,-43.94008 l -21.70113,-43.74698 -5.38593,-0.1916 c -2.96227,-0.10538 -5.61272,-0.0503 -5.88989,0.12233 -0.37904,0.23612 4.8632,11.15156 21.15111,44.04103 l 21.65505,43.7271 5.93596,0.0907 c 3.26477,0.0499 5.93595,0.004 5.93595,-0.10245 z m 33.93112,-0.38529 c 0,-0.18129 -14.43715,-30.95465 -25.02318,-53.33791 -2.14247,-4.53005 -3.89539,-8.54973 -3.89539,-8.93262 0,-0.3829 -0.15088,-0.75401 -0.33529,-0.8247 -0.31987,-0.12262 -10.51645,-21.35293 -11.30662,-23.54154 l -0.37884,-1.04931 -11.24437,0.23516 c -6.1844,0.12934 -11.31078,0.292 -11.39195,0.36147 -0.0812,0.0695 9.63547,19.73882 21.59253,43.70966 l 21.74012,43.58335 10.1215,3.7e-4 c 5.56682,2.1e-4 10.12149,-0.0916 10.12149,-0.20393 z m -101.0222,-7.90206 c 0,-0.83797 -39.42799,-79.09702 -39.95135,-79.29785 -0.81049,-0.31102 -3.3911,1.53778 -4.38006,3.13794 -0.61974,1.00278 -0.90864,2.20618 -1.0476,4.36375 -0.16641,2.58376 -0.0111,4.8196 0.846,12.18167 0.63427,5.44781 2.81925,13.27569 5.39568,19.33045 6.99603,16.4411 19.05251,29.78367 35.27218,39.03471 2.91287,1.66138 3.86515,1.96919 3.86515,1.24933 z m 72.23833,-74.6131 c -0.30585,-0.79704 -0.52028,-0.70311 -0.52028,0.2279 0,0.43665 0.16594,0.69137 0.36875,0.56602 0.2028,-0.12534 0.27099,-0.4826 0.15153,-0.79392 z"
   id="path881" /><path
   style="fill:#ff9e64;fill-opacity:1;stroke:#bb9af7;stroke-width:0.385581"
   d="m 124.34985,177.58963 c -5.05387,-1.16969 -9.44909,-4.05401 -12.53291,-8.22462 -6.38896,-8.64054 -5.48924,-19.36597 2.27521,-27.12244 3.4621,-3.45855 6.56481,-5.10948 10.86046,-5.77877 7.34086,-1.14377 13.56999,0.92559 18.79026,6.24226 5.05732,5.1507 7.18412,14.00879 4.92296,20.50398 -1.51085,4.33993 -5.21741,9.22338 -8.69369,11.45411 -4.34316,2.787 -10.90852,4.01645 -15.62229,2.92548 z m 8.13845,-12.73197 c 3.36347,-1.52464 5.01981,-4.62901 4.6425,-8.70116 -0.11581,-1.24992 -0.47506,-2.78405 -0.79833,-3.40918 -0.97734,-1.88998 -3.57858,-3.83225 -5.79748,-4.32882 -3.86356,-0.86462 -8.33571,1.34106 -9.90304,4.88421 -0.91877,2.077 -0.73467,5.95225 0.38723,8.15136 1.94583,3.81413 7.15385,5.35967 11.46912,3.40359 z"
   id="path952" /><path
   style="fill:#ff9e64;fill-opacity:1;stroke:#bb9af7;stroke-width:0.385581"
   d="M 88.490825,291.09342 C 71.831319,290.82168 69.982057,290.6681 65.780625,289.20739 53.915983,285.08239 36.413573,269.48693 24.54619,252.46559 13.079686,236.01923 4.9099823,215.47299 2.2743691,196.45349 1.24418,189.01929 0.81077029,170.01122 1.5210612,163.41563 3.2050443,147.77856 8.6765108,129.90775 15.901819,116.44544 36.048512,78.90782 71.290677,53.568635 113.27295,46.435412 c 7.49622,-1.273685 13.18482,-1.689262 23.2227,-1.696518 33.00941,-0.02386 66.28648,7.465245 91.66629,20.629785 13.98405,7.253537 24.73711,15.307772 35.54667,26.625091 4.45104,4.660116 7.4709,8.54804 10.37886,13.36233 2.93586,4.86046 9.98916,18.24226 11.22478,21.29609 0.60313,1.49062 7.38164,15.98384 15.06335,32.20716 17.36468,36.67316 24.21614,51.36996 26.60343,57.06598 6.69163,15.96605 9.07183,28.55966 7.68832,40.67878 -0.95702,8.38322 -3.13087,15.6319 -6.07078,20.243 -1.79926,2.82205 -5.90829,7.04913 -8.71018,8.96044 -2.92119,1.99267 -7.04932,3.87545 -10.45769,4.76958 -2.58388,0.67784 -7.002,0.70974 -103.52848,0.7474 -55.45618,0.0216 -108.290405,-0.0824 -117.409395,-0.23111 z M 272.9913,279.5479 c 20.38422,-0.21575 33.11549,-0.4989 34.70229,-0.77179 4.78219,-0.82242 9.41317,-4.61463 11.98533,-9.81453 3.96271,-8.01104 4.47712,-22.42416 1.26331,-35.39593 l -1.40905,-5.68732 -15.84851,-0.0124 c -29.89464,-0.0234 -62.46745,-0.66809 -67.50111,-1.3359 -10.28562,-1.36457 -19.00583,-3.98324 -28.16264,-8.45723 -18.70787,-9.14059 -33.26251,-23.53397 -42.40301,-41.93321 -7.93266,-15.96792 -11.93339,-37.9731 -8.56614,-47.11618 2.00288,-5.43838 5.49803,-9.16069 11.25431,-11.98573 l 3.47023,-1.70311 47.11803,-0.11932 c 35.7404,-0.0905 47.22866,-0.22995 47.57618,-0.5775 0.94133,-0.94141 -7.80803,-12.12379 -14.73804,-18.83638 C 229.86574,74.620642 198.56345,61.670352 158.85935,57.378149 148.13308,56.218588 126.24066,56.107819 118.75893,57.175252 90.902403,61.149598 67.168566,72.810108 47.979961,91.94919 c -18.511744,18.46396 -30.000348,40.90203 -34.357643,67.10295 -1.015209,6.10457 -1.03162,29.1772 -0.02526,35.51539 2.730159,17.19494 9.405935,34.41976 18.956804,48.91229 5.000185,7.58731 9.104224,12.59711 15.818739,19.30995 9.020619,9.01836 14.302442,12.92172 20.590068,15.21642 l 3.176794,1.15938 39.214947,0.32006 c 54.15694,0.442 123.24551,0.46862 161.63689,0.0623 z m -17.90426,-64.09766 c 0.11068,-0.11069 -9.57454,-19.9595 -21.52272,-44.10849 l -21.72395,-43.90725 -12.41681,-0.10174 c -6.82924,-0.0559 -12.4168,0.004 -12.4168,0.13324 0,0.12924 9.6132,19.54989 21.36266,43.157 13.04709,26.21431 21.65035,43.07599 22.10172,43.31755 0.78215,0.4186 7.71851,1.48885 11.28811,1.74171 2.83126,0.20056 13.07351,0.0222 13.32779,-0.23202 z m 25.14346,0.15134 c 0.54775,-0.34762 -1.7315,-5.07293 -27.60203,-57.22421 l -15.44537,-31.13566 -4.3632,-0.0773 c -4.74444,-0.0841 -7.31786,0.0116 -7.58846,0.28222 -0.25613,0.25612 0.57934,2.07046 8.2507,17.91741 15.00455,30.99534 34.61943,70.14386 35.22596,70.30604 1.1441,0.3059 11.02501,0.24719 11.5224,-0.0685 z m 33.9291,-0.38434 c 0.51707,-0.32818 -2.17047,-6.26963 -18.5171,-40.93663 -4.35042,-9.2261 -8.37405,-17.87762 -8.94141,-19.2256 -0.56735,-1.34797 -2.60149,-5.68487 -4.52031,-9.63755 -4.70346,-9.68894 -8.41831,-17.72107 -8.41831,-18.20182 0,-0.42128 -19.92051,-0.0992 -22.26082,0.35988 l -1.24665,0.24456 4.94567,10.2179 c 2.72013,5.61984 12.5208,25.35676 21.77928,43.85983 l 16.8336,33.64193 9.92827,-0.006 c 5.46055,-0.003 10.14855,-0.14572 10.41778,-0.3166 z m -100.65858,-8.02006 c 0.0802,-0.24098 -6.62239,-13.94839 -14.8947,-30.46089 -20.29747,-40.51613 -24.82049,-49.27551 -25.51287,-49.40885 -0.73871,-0.14226 -3.59237,1.90227 -4.42168,3.16795 -2.39963,3.6623 -0.90805,19.32189 2.92143,30.671 6.35966,18.84765 19.33717,34.46372 37.08873,44.62955 3.48901,1.99806 4.52054,2.298 4.81909,1.40124 z m 72.14488,-74.65373 c -0.0678,-0.47716 -0.29673,-0.86756 -0.5088,-0.86756 -0.21207,0 -0.44102,0.3904 -0.50879,0.86756 -0.0848,0.59694 0.0739,0.86755 0.50879,0.86755 0.43487,0 0.59358,-0.27061 0.5088,-0.86755 z"
   id="path954" /><path
   style="fill:#ff9e64;fill-opacity:1;stroke:#bb9af7;stroke-width:0.385581"
   d="m 117.02381,290.71124 c -32.5078,-0.17584 -45.0087,-0.36603 -46.840661,-0.71265 -9.044001,-1.7112 -21.493411,-10.37521 -33.5797,-23.36937 C 21.448712,250.33612 10.469892,230.08325 5.0416643,208.4065 2.4181404,197.92988 1.802254,191.76398 1.7679678,175.63212 1.7431183,163.94031 1.8143791,162.48617 2.6462783,157.70938 7.5787607,129.38697 19.332932,105.99347 38.558094,86.236619 44.910162,79.70888 49.149204,75.96846 55.523655,71.266648 73.687432,57.869002 94.976035,49.341169 118.56614,46.012957 c 6.85068,-0.966529 28.07136,-0.967626 37.97412,-0.002 37.88164,3.694004 69.82429,15.266503 93.35561,33.821794 5.19629,4.097459 17.65586,16.650282 20.45793,20.611039 4.05766,5.73557 10.98247,18.48743 16.18518,29.8046 1.72582,3.75408 8.94816,19.1449 16.04964,34.20184 14.72932,31.2299 21.64866,46.12148 24.13513,51.94287 3.92301,9.18468 6.73532,19.34854 7.60549,27.4868 1.07006,10.00764 -0.85856,22.2764 -4.75806,30.26811 -1.34662,2.75978 -2.24146,3.92097 -5.6655,7.35188 -4.2468,4.25531 -6.43052,5.67727 -12.23476,7.96682 l -2.6278,1.03657 -33.35275,0.26005 c -38.9686,0.30385 -96.33984,0.28499 -158.66656,-0.0521 z m 148.73627,-10.78279 c 20.51685,-0.20549 38.7846,-0.54192 40.595,-0.74763 8.67609,-0.98585 14.34555,-7.65094 16.41638,-19.29927 0.30508,-1.7161 0.50273,-5.5569 0.48613,-9.44673 -0.0297,-6.94522 -0.52078,-10.84321 -2.34414,-18.60428 l -1.0191,-4.33779 -17.57142,-0.003 c -21.20277,-0.003 -56.18439,-0.64355 -62.97748,-1.15294 -10.52695,-0.7894 -20.99281,-3.74605 -31.34369,-8.85476 -18.89704,-9.32668 -32.96188,-23.32015 -42.01836,-41.8051 -5.39537,-11.01236 -8.86593,-23.64745 -9.65678,-35.15695 -0.77261,-11.24392 2.96405,-18.33427 12.16727,-23.08755 l 3.40491,-1.75857 31.17081,-3.8e-4 c 34.32841,-3.9e-4 62.69391,-0.35477 63.40089,-0.79171 0.85888,-0.53082 -0.029,-2.26109 -3.58331,-6.9826 C 256.64293,99.604529 247.41582,90.702036 238.28902,84.166701 217.50875,69.286774 186.87605,59.214466 154.61796,56.6549 145.74042,55.950498 124.57037,56.058038 118.75893,56.837057 90.639471,60.606447 65.127003,73.481856 45.793512,93.660602 29.498463,110.66807 19.117478,130.45585 14.268991,153.75127 c -2.371363,11.39364 -2.466043,34.56844 -0.186272,45.59408 3.486575,16.86208 9.641071,31.56787 19.122213,45.69134 4.262355,6.34937 7.434589,10.28246 12.827321,15.90396 9.114612,9.50126 15.940101,14.75966 22.414502,17.26828 l 3.560948,1.37976 44.293377,0.30036 c 65.71843,0.44565 107.78878,0.45674 149.459,0.0394 z m -13.10459,-64.00312 h 2.68269 l -0.25895,-1.06035 c -0.28075,-1.14964 -11.07113,-23.30899 -30.49658,-62.62837 l -12.32034,-24.93783 -2.31349,-0.24783 c -2.94478,-0.31546 -22.79116,-0.0902 -23.14318,0.26271 -0.27493,0.2756 28.70223,58.86379 37.88528,76.59928 3.86605,7.46661 5.49187,10.24673 6.1354,10.4914 1.01629,0.38639 8.21988,1.44447 11.31851,1.66249 1.16638,0.0821 3.40483,0.0838 4.97433,0.004 1.5695,-0.0799 4.06085,-0.14535 5.53633,-0.14535 z m 27.89211,-0.10113 c 0.16132,-0.16165 -0.11169,-1.28948 -0.60669,-2.50627 -0.98138,-2.41241 -19.29524,-39.76069 -33.55778,-68.43589 l -8.96577,-18.02591 h -6.13115 c -4.85518,0 -6.17361,0.11066 -6.33519,0.53173 -0.24256,0.6321 2.63201,6.81302 14.09854,30.31474 13.05285,26.75304 28.23871,56.76649 29.23308,57.77652 0.86441,0.87801 1.0446,0.89961 6.43049,0.77116 3.04764,-0.0727 5.67315,-0.26443 5.83447,-0.42608 z m 33.90056,-0.35502 c 0.58154,-0.58288 -1.44711,-5.19674 -14.46422,-32.89661 -4.086,-8.69485 -9.73097,-20.75389 -12.54438,-26.79787 -2.8134,-6.04398 -6.84291,-14.6334 -8.95446,-19.0876 -2.11154,-4.4542 -3.9575,-8.47137 -4.10213,-8.92705 -0.34949,-1.10116 -1.48104,-1.17428 -13.82898,-0.89363 -6.77075,0.15389 -10.07406,0.36873 -10.38046,0.67513 -0.34216,0.34216 4.78752,10.9485 21.49493,44.44378 l 21.94433,43.99437 10.28632,-0.12358 c 5.65747,-0.068 10.40454,-0.24209 10.54905,-0.38694 z m -100.89601,-9.18886 c -1.18985,-3.41321 -38.04451,-76.52183 -39.64046,-78.63482 -0.62887,-0.83261 -0.83144,-0.89238 -1.69334,-0.49967 -1.89455,0.86321 -4.08212,3.20692 -4.53696,4.86079 -0.62091,2.25773 -0.49665,10.09545 0.23839,15.03611 2.08218,13.99571 7.42225,26.66963 15.945,37.84333 2.62451,3.44084 9.82297,10.707 13.55266,13.68013 3.84713,3.06674 10.47838,7.42917 13.23272,8.70527 2.47475,1.14657 3.52246,0.78874 2.90199,-0.99114 z m 72.35612,-73.64048 c 0,-1.09915 -1.21701,-1.56519 -1.58475,-0.60687 -0.3508,0.91417 0.14556,1.83743 0.90881,1.69044 0.42685,-0.0822 0.67594,-0.48151 0.67594,-1.08357 z"
   id="path956" /></g>
<g
   id="g8193">
</g>
<g
   id="g8195">
</g>
<g
   id="g8197">
</g>
<g
   id="g8199">
</g>
<g
   id="g8201">
</g>
<g
   id="g8203">
</g>
<g
   id="g8205">
</g>
<g
   id="g8207">
</g>
<g
   id="g8209">
</g>
<g
   id="g8211">
</g>
<g
   id="g8213">
</g>
<g
   id="g8215">
</g>
<g
   id="g8217">
</g>
<g
   id="g8219">
</g>
<g
   id="g8221">
</g>
</svg>
