<?xml version="1.0" encoding="UTF-8" standalone="no"?>
<svg
   width="460px"
   height="460px"
   viewBox="0 0 460 460"
   version="1.1"
   id="svg11381"
   sodipodi:docname="reddit.svg"
   inkscape:version="1.2.1 (9c6d41e410, 2022-07-14)"
   xmlns:inkscape="http://www.inkscape.org/namespaces/inkscape"
   xmlns:sodipodi="http://sodipodi.sourceforge.net/DTD/sodipodi-0.dtd"
   xmlns="http://www.w3.org/2000/svg"
   xmlns:svg="http://www.w3.org/2000/svg">
  <defs
     id="defs11385" />
  <sodipodi:namedview
     id="namedview11383"
     pagecolor="#ffffff"
     bordercolor="#000000"
     borderopacity="0.25"
     inkscape:showpageshadow="2"
     inkscape:pageopacity="0.0"
     inkscape:pagecheckerboard="0"
     inkscape:deskcolor="#d1d1d1"
     showgrid="false"
     inkscape:zoom="1.8934783"
     inkscape:cx="229.2078"
     inkscape:cy="230.79219"
     inkscape:window-width="1916"
     inkscape:window-height="1052"
     inkscape:window-x="1"
     inkscape:window-y="25"
     inkscape:window-maximized="1"
     inkscape:current-layer="svg11381" />
  <g
     id="surface1">
    <path
       style=" stroke:none;fill-rule:evenodd;fill:rgb(0%,0%,0%);fill-opacity:1;"
       d="M 361.257812 87.25 C 349.257812 83.589844 336.578125 90.34375 332.898438 102.113281 C 331.359375 107.027344 326.210938 109.847656 321.242188 108.5 L 264.6875 93.171875 L 245.910156 150.75 C 269.441406 155.398438 308.445312 165.570312 338.46875 181.59375 C 346.339844 177.597656 356.859375 175.464844 366.875 175.804688 C 379.792969 176.238281 394.902344 180.949219 403.496094 194.792969 C 413.621094 211.101562 413.953125 226.058594 408.84375 238.199219 C 405.140625 247.007812 398.859375 253.65625 392.855469 258.082031 C 394.964844 309.589844 344.011719 365.628906 242.65625 373.210938 C 208.5 375.769531 162.375 369.398438 125.8125 350.34375 C 107.441406 340.769531 91.023438 327.75 79.964844 310.570312 C 69.636719 294.523438 64.28125 275.300781 65.96875 252.910156 C 60.179688 247.839844 53.941406 240.128906 50.519531 230.609375 C 45.863281 217.648438 46.683594 201.851562 59.445312 186.558594 C 71.867188 171.664062 95.652344 170.335938 116.480469 181.347656 C 124.042969 176.4375 134.71875 170.4375 146.992188 165.140625 C 162.398438 158.488281 180.945312 152.6875 199.40625 151.917969 C 204.699219 151.699219 209.164062 155.808594 209.382812 161.09375 C 209.601562 166.382812 205.496094 170.847656 200.207031 171.066406 C 184.957031 171.703125 168.828125 176.589844 154.585938 182.738281 C 140.390625 188.863281 128.6875 195.972656 122.453125 200.46875 C 119.226562 202.792969 114.898438 202.886719 111.578125 200.699219 C 94.082031 189.179688 79.042969 192.988281 74.167969 198.832031 C 66.003906 208.613281 66.066406 217.195312 68.554688 224.125 C 71.308594 231.792969 77.335938 237.960938 81.332031 240.617188 C 84.351562 242.625 85.980469 246.171875 85.535156 249.777344 C 83.003906 270.203125 87.414062 286.730469 96.082031 300.195312 C 104.855469 313.824219 118.34375 324.835938 134.667969 333.347656 C 167.5 350.453125 209.925781 356.441406 241.230469 354.097656 C 341.421875 346.605469 377.949219 291.585938 373.332031 254.324219 C 372.847656 250.429688 374.792969 246.636719 378.234375 244.746094 C 382.804688 242.242188 388.425781 237.308594 391.179688 230.761719 C 393.675781 224.824219 394.339844 216.382812 387.210938 204.898438 C 383.296875 198.589844 375.6875 195.277344 366.222656 194.960938 C 356.53125 194.632812 347.980469 197.589844 344.6875 200.203125 C 341.609375 202.644531 337.34375 202.960938 333.9375 200.996094 C 301.230469 182.117188 252.355469 170.898438 231.910156 167.710938 C 229.132812 167.277344 226.6875 165.648438 225.214844 163.253906 C 223.75 160.863281 223.402344 157.941406 224.273438 155.273438 L 249.289062 78.566406 C 250.875 73.714844 255.984375 70.953125 260.910156 72.285156 L 318.359375 87.863281 C 327.902344 71.476562 347.867188 63.125 366.851562 68.917969 C 388.871094 75.632812 401.375 98.804688 394.5 120.78125 C 387.636719 142.703125 364.179688 154.816406 342.210938 148.113281 C 332.550781 145.164062 324.710938 139.046875 319.546875 131.25 C 316.625 126.835938 317.832031 120.890625 322.246094 117.96875 C 326.65625 115.046875 332.605469 116.253906 335.527344 120.667969 C 338.304688 124.859375 342.519531 128.167969 347.804688 129.78125 C 359.878906 133.464844 372.546875 126.746094 376.210938 115.054688 C 379.851562 103.417969 373.285156 90.917969 361.257812 87.25 Z M 361.257812 87.25 "
       id="path11378" />
  </g>
  <path
     style="fill:#bb9af7;stroke:#bb9af7;stroke-width:0.528129"
     d="M 214.42021,373.10685 C 182.403,371.011 151.79367,363.12297 127.25143,350.64346 105.05681,339.35767 87.590221,323.66005 77.694223,306.10523 69.816474,292.13065 66.04964,277.29924 66.026384,260.16468 l -0.01031,-7.59651 -3.733526,-3.93044 c -8.239256,-8.67379 -12.91637,-18.64669 -13.954502,-29.75485 -1.416543,-15.15721 8.614673,-33.63662 21.918602,-40.37823 5.764516,-2.9211 9.690938,-3.69431 18.74302,-3.69097 7.582877,0.003 8.980311,0.15104 13.617002,1.44454 2.84181,0.79277 6.97488,2.27673 9.18459,3.29768 2.20971,1.02095 4.26028,1.85627 4.55681,1.85627 0.29654,0 3.07946,-1.5254 6.18427,-3.38978 11.24201,-6.75063 26.53654,-13.84927 39.25759,-18.22061 16.4923,-5.66726 37.50527,-9.00381 42.01554,-6.67147 5.11321,2.64415 6.7638,8.84749 3.60238,13.53872 -1.97039,2.92386 -3.9365,3.69519 -11.41251,4.47729 -3.72541,0.38972 -9.18739,1.20052 -12.13774,1.80176 -17.88761,3.64527 -40.23276,13.19295 -57.7757,24.68654 -2.83693,1.85866 -5.88373,3.63236 -6.77066,3.94155 -2.59063,0.90309 -5.202,0.21983 -10.26201,-2.68505 -7.31065,-4.19693 -11.901451,-5.52236 -19.267369,-5.56275 -9.521761,-0.0522 -13.782984,1.94504 -18.20114,8.53096 -3.581896,5.33936 -4.673885,9.14043 -4.419236,15.3828 0.179224,4.39346 0.444609,5.60437 1.915605,8.74064 2.555781,5.44911 6.090307,10.04992 10.503253,13.67183 5.188305,4.2583 5.687113,5.26787 5.406381,10.94241 -0.93321,18.86335 0.766186,29.63729 6.640051,42.09702 6.239874,13.23613 18.639865,26.29587 34.067825,35.88044 19.83751,12.32398 47.00859,21.11027 76.57865,24.76316 10.91185,1.34798 33.01259,1.6194 44.09874,0.54158 44.80758,-4.3563 79.17659,-17.84547 102.13553,-40.08622 17.40866,-16.86409 26.05195,-35.92122 25.25245,-55.67776 -0.24467,-6.04592 -0.17849,-6.64502 0.994,-8.99789 0.96242,-1.93133 2.02808,-3.01005 4.55767,-4.61351 4.88896,-3.09904 9.03855,-7.5699 11.33093,-12.2082 1.71029,-3.46055 1.99292,-4.57283 2.18551,-8.60098 0.28566,-5.97492 -0.43696,-9.22479 -3.3727,-15.1681 -3.89663,-7.88859 -8.84418,-11.59733 -17.5395,-13.14781 -9.55468,-1.70372 -20.06147,-0.0148 -27.15974,4.36588 -1.80326,1.11286 -3.96617,1.96866 -5.37757,2.12775 -2.10712,0.23751 -2.97204,-0.0573 -8.04251,-2.74092 -23.60082,-12.49121 -57.71335,-23.85982 -89.66139,-29.88124 -11.06124,-2.08477 -12.09936,-2.3846 -14.10783,-4.07461 -2.2817,-1.91993 -3.83763,-5.51967 -3.39821,-7.86199 0.18665,-0.99495 6.1362,-19.56734 13.2212,-41.27198 12.18588,-37.330979 12.98105,-39.553998 14.71849,-41.147619 1.01016,-0.926549 2.8658,-1.963316 4.12364,-2.303926 2.18588,-0.591913 3.59448,-0.266098 31.86218,7.369857 16.26637,4.394032 29.81286,7.979492 30.10333,7.96769 0.29047,-0.0118 1.33822,-1.215483 2.32832,-2.674847 8.80881,-12.983764 26.05613,-20.144581 41.32787,-17.158681 8.55994,1.673623 15.20482,5.057702 21.24814,10.821173 17.25198,16.453086 17.23602,43.003823 -0.0356,59.231873 -15.13667,14.2221 -37.49005,15.35603 -53.96469,2.73748 -4.00927,-3.07086 -9.10263,-8.83871 -10.08365,-11.419 -2.66659,-7.01367 3.5929,-14.32704 10.66642,-12.46226 1.7598,0.46393 3.15702,1.538 6.46958,4.97327 5.94071,6.1608 8.87649,7.84243 15.31573,8.77296 12.11577,1.75084 23.42781,-6.49592 25.68051,-18.72173 1.70827,-9.27109 -3.58209,-19.443504 -12.24188,-23.538934 -12.03236,-5.690408 -25.68476,-0.876992 -31.16851,10.98906 -0.89142,1.928894 -1.90117,4.077734 -2.24389,4.775214 -0.8609,1.75201 -4.10004,3.78465 -6.55603,4.11407 -1.57043,0.21064 -8.74544,-1.53654 -30.80126,-7.50039 -15.81465,-4.276255 -28.95731,-7.806788 -29.20591,-7.845632 -0.591,-0.09235 -19.40355,57.392202 -18.92592,57.830982 0.20091,0.18457 2.8607,0.85616 5.91065,1.49241 27.48012,5.73268 57.53791,15.54704 78.56865,25.65396 l 8.0635,3.87513 2.89178,-1.27888 c 10.04907,-4.44418 26.19713,-5.71858 36.96286,-2.9171 5.52991,1.43899 12.93687,5.08223 16.90012,8.3126 10.57096,8.6162 17.93789,27.0935 16.19263,40.61347 -1.32573,10.27004 -5.62092,18.56389 -13.82184,26.68939 l -5.11987,5.07279 -0.31576,7.07417 c -0.36353,8.14426 -1.20875,12.54505 -4.0589,21.13363 -9.41599,28.37388 -34.68355,53.15773 -69.96172,68.62243 -29.57528,12.96474 -70.76876,20.07275 -103.79859,17.91061 z"
     id="path11867" />
  <path
     style="fill:#ff9e64;stroke:#bb9af7;stroke-width:0.528129"
     d="m 211.5155,372.74303 c -1.74283,-0.21832 -7.32779,-0.89192 -12.41103,-1.4969 -32.68224,-3.88964 -63.66805,-14.44395 -86.22182,-29.36867 -24.374686,-16.12969 -39.551143,-37.24391 -44.732033,-62.23338 -0.682958,-3.29417 -1.32109,-9.45166 -1.69601,-16.3652 l -0.601078,-11.08392 -3.539751,-4.01702 c -7.504994,-8.51691 -10.962934,-15.03199 -12.960074,-24.41798 -4.195459,-19.71747 9.355562,-42.76093 28.017133,-47.64304 2.229497,-0.58327 5.699698,-0.83452 11.707206,-0.84762 9.644477,-0.0211 12.545817,0.55297 22.106127,4.37357 l 5.34748,2.13703 7.88228,-4.47433 c 9.44961,-5.36402 12.12641,-6.71979 21.08549,-10.67956 18.21105,-8.049 36.28987,-12.97798 50.72922,-13.83072 6.16544,-0.36411 8.32382,0.32246 10.66558,3.39266 2.02241,2.65153 2.28225,7.10111 0.56245,9.63185 -2.41984,3.56089 -5.42888,4.6525 -15.48193,5.61653 -17.20144,1.64951 -43.29389,11.703 -64.00716,24.66213 -8.70681,5.44736 -9.49333,5.81288 -11.72901,5.45091 -1.0443,-0.16908 -4.75063,-1.74048 -8.23628,-3.49201 -8.319082,-4.1803 -10.930685,-4.79511 -19.540753,-4.60019 -5.774342,0.13073 -7.285414,0.34463 -9.506315,1.34568 -3.512028,1.58301 -7.212282,5.62931 -9.640075,10.54162 l -1.978753,4.00373 v 6.89306 6.89306 l 1.977575,3.86527 c 2.611126,5.10358 5.770016,9.12743 10.371637,13.21157 2.073159,1.84002 4.029609,3.83174 4.347668,4.42603 0.359452,0.67165 0.631718,5.80096 0.719483,13.55463 0.19666,17.37409 1.464499,23.64859 7.109272,35.1836 14.745991,30.13323 52.709921,51.6633 104.778021,59.42164 9.74666,1.45229 26.88577,2.31259 37.32091,1.87334 4.79277,-0.20174 9.18944,-0.35389 9.77038,-0.33811 2.09771,0.057 18.6433,-2.17405 25.61423,-3.45387 29.26452,-5.3728 53.86165,-15.76922 72.1179,-30.48193 5.58257,-4.49899 15.03089,-14.39254 18.88485,-19.77476 3.99537,-5.57971 8.34315,-13.9572 10.34007,-19.9237 2.28152,-6.81682 3.1391,-12.62561 3.13895,-21.26148 -1.7e-4,-9.84444 0.44143,-10.84631 6.88857,-15.62841 4.87892,-3.61888 7.94772,-7.14428 10.41072,-11.95969 1.32554,-2.59157 1.50147,-3.53904 1.63196,-8.7887 0.16451,-6.61818 -0.43306,-9.35607 -3.27287,-14.99518 -4.84038,-9.6117 -11.80911,-13.32808 -25.077,-13.37341 -7.84324,-0.0268 -11.93257,0.94635 -19.54414,4.65098 -2.71545,1.32164 -5.50591,2.40298 -6.20104,2.40298 -0.69511,0 -5.58435,-2.11041 -10.86496,-4.68978 -25.43629,-12.42466 -51.82312,-21.0721 -84.79443,-27.78866 -6.46833,-1.31766 -12.67001,-2.85969 -13.78151,-3.42674 -2.35787,-1.2029 -4.23993,-3.97031 -4.59465,-6.75605 -0.25572,-2.00831 3.34442,-13.63614 17.61427,-56.89101 8.49419,-25.747669 8.93139,-26.753211 12.42152,-28.569123 2.96121,-1.540717 2.85799,-1.562369 40.59314,8.515147 12.47744,3.332212 22.87588,6.058568 23.10764,6.058568 0.23176,0 1.54954,-1.536475 2.9284,-3.414388 5.81605,-7.921068 13.7526,-13.163249 24.16703,-15.962618 4.71587,-1.267612 14.36051,-1.233549 18.94873,0.06692 14.01436,3.972193 24.82328,14.047476 29.30928,27.319963 1.89703,5.612651 2.42259,15.070241 1.14117,20.535551 -3.04439,12.98435 -11.74726,23.60439 -23.77639,29.01411 -5.4798,2.46437 -10.00497,3.38187 -16.7085,3.38774 -7.32938,0.006 -12.17024,-1.19623 -18.98735,-4.71713 -7.13763,-3.68644 -15.1676,-11.65887 -16.46095,-16.34299 -1.11366,-4.03332 2.34667,-9.87629 6.31716,-10.6669 3.96367,-0.78925 5.44055,-0.11833 10.6894,4.85599 2.5871,2.45179 5.59652,5.03934 6.68759,5.75011 3.36939,2.19496 7.56548,3.09627 13.27888,2.85229 4.37626,-0.18687 5.56322,-0.45108 8.60104,-1.91452 15.13611,-7.29162 17.6422,-27.81332 4.65061,-38.082585 -4.42128,-3.494817 -7.71297,-4.500962 -14.77638,-4.516572 -5.7544,-0.01272 -6.26143,0.07561 -9.65094,1.681137 -4.89997,2.321009 -8.52175,6.08778 -11.59325,12.05738 -2.70066,5.24885 -3.48084,6.15304 -6.33981,7.3476 -2.57527,1.07601 -3.89876,0.79025 -35.74239,-7.717181 -14.06086,-3.756537 -25.84768,-6.721669 -26.19293,-6.589181 -0.34526,0.132488 -3.38217,8.521022 -6.7487,18.641192 -9.28345,27.90715 -12.62622,38.87333 -11.97273,39.27721 0.31143,0.19247 3.4632,0.99987 7.00395,1.79421 29.8435,6.69518 55.90563,15.34363 78.69013,26.11248 l 6.61102,3.12463 4.66702,-1.74808 c 6.00413,-2.24892 11.5556,-3.3735 18.5824,-3.76432 10.32884,-0.57447 18.133,1.06213 27.12038,5.68736 15.20443,7.82476 25.46623,30.11114 21.85017,47.45383 -1.79629,8.61506 -5.66416,15.39009 -13.24825,23.20585 l -4.97658,5.12861 -0.54512,7.88975 c -0.58911,8.5265 -1.25906,12.01528 -3.79689,19.77264 -10.68462,32.65948 -41.6416,60.05702 -84.41783,74.71144 -16.86741,5.77849 -36.73568,9.92148 -57.30195,11.94877 -7.26649,0.71629 -30.14076,0.95598 -34.85648,0.36526 z"
     id="path3192" />
</svg>
